HIERARCHY
ROOT Hips
{
  OFFSET -21.6994 31.6921 0
  CHANNELS 6 Xposition Yposition Zposition Zrotation Xrotation Yrotation
  JOINT Bip01_Pelvis
  {
    OFFSET 0 0 0
    CHANNELS 6 Xposition Yposition Zposition Zrotation Xrotation Yrotation
    JOINT BN_Tail_01
    {
      OFFSET -7.25226 -1.74978 0
      CHANNELS 6 Xposition Yposition Zposition Zrotation Xrotation Yrotation
      JOINT BN_Tail_02
      {
        OFFSET 15.788 0 0
        CHANNELS 6 Xposition Yposition Zposition Zrotation Xrotation Yrotation
        JOINT BN_Tail_03
        {
          OFFSET 16.0015 0 0
          CHANNELS 6 Xposition Yposition Zposition Zrotation Xrotation Yrotation
          JOINT BN_Tail_04
          {
            OFFSET 16.1689 0 0
            CHANNELS 6 Xposition Yposition Zposition Zrotation Xrotation Yrotation
            End Site
            {
              OFFSET 0 0 0
            }
          }
        }
      }
    }
    JOINT Bip01_Spine
    {
      OFFSET 6.38383 2.70859 0.585432
      CHANNELS 6 Xposition Yposition Zposition Zrotation Xrotation Yrotation
      JOINT BN_Mane_02
      {
        OFFSET 6.12662 8.45826 0
        CHANNELS 6 Xposition Yposition Zposition Zrotation Xrotation Yrotation
        End Site
        {
          OFFSET 0 0 0
        }
      }
      JOINT Bip01_R_Thigh
      {
        OFFSET -7.04074 -2.18223 -5.47025
        CHANNELS 6 Xposition Yposition Zposition Zrotation Xrotation Yrotation
        JOINT Bip01_R_Calf
        {
          OFFSET 13.6591 0 0
          CHANNELS 6 Xposition Yposition Zposition Zrotation Xrotation Yrotation
          JOINT Bip01_R_HorseLink
          {
            OFFSET 9.07516 0 0
            CHANNELS 6 Xposition Yposition Zposition Zrotation Xrotation Yrotation
            JOINT Bip01_R_Foot
            {
              OFFSET 8.13856 0 0
              CHANNELS 6 Xposition Yposition Zposition Zrotation Xrotation Yrotation
              JOINT Bip01_R_Toe0
              {
                OFFSET 3.79737 6.30086 0
                CHANNELS 6 Xposition Yposition Zposition Zrotation Xrotation Yrotation
                JOINT Bip01_R_Toe0Nub
                {
                  OFFSET 0.838764 0 0
                  CHANNELS 6 Xposition Yposition Zposition Zrotation Xrotation Yrotation
                  End Site
                  {
                    OFFSET 0 0 0
                  }
                }
              }
            }
          }
        }
      }
      JOINT Bip01_L_Thigh
      {
        OFFSET -6.18667 -2.14873 5.3508
        CHANNELS 6 Xposition Yposition Zposition Zrotation Xrotation Yrotation
        JOINT Bip01_L_Calf
        {
          OFFSET 13.6591 0 0
          CHANNELS 6 Xposition Yposition Zposition Zrotation Xrotation Yrotation
          JOINT Bip01_L_HorseLink
          {
            OFFSET 9.07515 0 0
            CHANNELS 6 Xposition Yposition Zposition Zrotation Xrotation Yrotation
            JOINT Bip01_L_Foot
            {
              OFFSET 8.13856 0 0
              CHANNELS 6 Xposition Yposition Zposition Zrotation Xrotation Yrotation
              JOINT Bip01_L_Toe0
              {
                OFFSET 3.79737 6.30086 0
                CHANNELS 6 Xposition Yposition Zposition Zrotation Xrotation Yrotation
                JOINT Bip01_L_Toe0Nub
                {
                  OFFSET 0.838764 0 0
                  CHANNELS 6 Xposition Yposition Zposition Zrotation Xrotation Yrotation
                  End Site
                  {
                    OFFSET 0 0 0
                  }
                }
              }
            }
          }
        }
      }
      JOINT Bip01_Spine1
      {
        OFFSET 12.1687 -0.0105438 0
        CHANNELS 6 Xposition Yposition Zposition Zrotation Xrotation Yrotation
        JOINT BN_Mane_R_01
        {
          OFFSET -0.157498 5.09008 -6.54008
          CHANNELS 6 Xposition Yposition Zposition Zrotation Xrotation Yrotation
          End Site
          {
            OFFSET 0 0 0
          }
        }
        JOINT BN_Mane_R_02
        {
          OFFSET -0.1575 5.09007 6.54
          CHANNELS 6 Xposition Yposition Zposition Zrotation Xrotation Yrotation
          End Site
          {
            OFFSET 0 0 0
          }
        }
        JOINT BN_Mane_01
        {
          OFFSET 8.29709 8.50414 0
          CHANNELS 6 Xposition Yposition Zposition Zrotation Xrotation Yrotation
          End Site
          {
            OFFSET 0 0 0
          }
        }
        JOINT Bip01_Spine2
        {
          OFFSET 13.2802 -0.0100708 1.51992e-005
          CHANNELS 6 Xposition Yposition Zposition Zrotation Xrotation Yrotation
          JOINT Bip01_Neck
          {
            OFFSET 12.4891 -6.66662 0
            CHANNELS 6 Xposition Yposition Zposition Zrotation Xrotation Yrotation
            JOINT Bip01_R_Clavicle
            {
              OFFSET -7.4542 -2.82621 -1.17874
              CHANNELS 6 Xposition Yposition Zposition Zrotation Xrotation Yrotation
              JOINT Bip01_R_UpperArm
              {
                OFFSET 13.2557 0 0
                CHANNELS 6 Xposition Yposition Zposition Zrotation Xrotation Yrotation
                JOINT Bip01_R_Forearm
                {
                  OFFSET 12.8897 0 0
                  CHANNELS 6 Xposition Yposition Zposition Zrotation Xrotation Yrotation
                  JOINT Bip01_R_Hand
                  {
                    OFFSET 11.2622 0 0
                    CHANNELS 6 Xposition Yposition Zposition Zrotation Xrotation Yrotation
                    JOINT Bip01_R_Finger0
                    {
                      OFFSET 3.98015 -0.208661 -0.0949803
                      CHANNELS 6 Xposition Yposition Zposition Zrotation Xrotation Yrotation
                      JOINT Bip01_R_Finger0Nub
                      {
                        OFFSET 6.57561 0 0
                        CHANNELS 6 Xposition Yposition Zposition Zrotation Xrotation Yrotation
                        End Site
                        {
                          OFFSET 0 0 0
                        }
                      }
                    }
                  }
                }
              }
            }
            JOINT Bip01_L_Clavicle
            {
              OFFSET -7.4541 -2.82679 1.17708
              CHANNELS 6 Xposition Yposition Zposition Zrotation Xrotation Yrotation
              JOINT Bip01_L_UpperArm
              {
                OFFSET 13.2558 0 0
                CHANNELS 6 Xposition Yposition Zposition Zrotation Xrotation Yrotation
                JOINT Bip01_L_Forearm
                {
                  OFFSET 12.8897 0 0
                  CHANNELS 6 Xposition Yposition Zposition Zrotation Xrotation Yrotation
                  JOINT Bip01_L_Hand
                  {
                    OFFSET 11.2622 0 0
                    CHANNELS 6 Xposition Yposition Zposition Zrotation Xrotation Yrotation
                    JOINT Bip01_L_Finger0
                    {
                      OFFSET 3.98014 -0.20866 0.0949764
                      CHANNELS 6 Xposition Yposition Zposition Zrotation Xrotation Yrotation
                      JOINT Bip01_L_Finger0Nub
                      {
                        OFFSET 6.57562 0 0
                        CHANNELS 6 Xposition Yposition Zposition Zrotation Xrotation Yrotation
                        End Site
                        {
                          OFFSET 0 0 0
                        }
                      }
                    }
                  }
                }
              }
            }
            JOINT Bip01_Neck1
            {
              OFFSET 4.19352 -0.00332451 0
              CHANNELS 6 Xposition Yposition Zposition Zrotation Xrotation Yrotation
              JOINT Bip01_Head
              {
                OFFSET 4.17604 0.298252 0
                CHANNELS 6 Xposition Yposition Zposition Zrotation Xrotation Yrotation
                JOINT BN_Eye_R_01
                {
                  OFFSET 6.53258 -3.90694 -2.55361
                  CHANNELS 6 Xposition Yposition Zposition Zrotation Xrotation Yrotation
                  End Site
                  {
                    OFFSET 0 0 0
                  }
                }
                JOINT BN_Eye_L_01
                {
                  OFFSET 6.5326 -3.90694 2.55371
                  CHANNELS 6 Xposition Yposition Zposition Zrotation Xrotation Yrotation
                  End Site
                  {
                    OFFSET 0 0 0
                  }
                }
                JOINT BN_Ear_R_01
                {
                  OFFSET 1.75934 -4.1584 -4.45634
                  CHANNELS 6 Xposition Yposition Zposition Zrotation Xrotation Yrotation
                  End Site
                  {
                    OFFSET 0 0 0
                  }
                }
                JOINT BN_Ear_L_01
                {
                  OFFSET 1.75933 -4.15841 4.45616
                  CHANNELS 6 Xposition Yposition Zposition Zrotation Xrotation Yrotation
                  End Site
                  {
                    OFFSET 0 0 0
                  }
                }
                JOINT BN_Beard_L_01
                {
                  OFFSET 11.2964 -1.06183 2.32054
                  CHANNELS 6 Xposition Yposition Zposition Zrotation Xrotation Yrotation
                  End Site
                  {
                    OFFSET 0 0 0
                  }
                }
                JOINT BN_Beard_R_01
                {
                  OFFSET 11.2964 -1.06182 -2.32036
                  CHANNELS 6 Xposition Yposition Zposition Zrotation Xrotation Yrotation
                  End Site
                  {
                    OFFSET 0 0 0
                  }
                }
                JOINT BN_Mouth_0
                {
                  OFFSET 1.3149 1.30001 0
                  CHANNELS 6 Xposition Yposition Zposition Zrotation Xrotation Yrotation
                  End Site
                  {
                    OFFSET 0 0 0
                  }
                }
                JOINT Bip01_HeadNub
                {
                  OFFSET 12.6869 0 0
                  CHANNELS 6 Xposition Yposition Zposition Zrotation Xrotation Yrotation
                  End Site
                  {
                    OFFSET 0 0 0
                  }
                }
              }
            }
          }
        }
      }
    }
  }
}
MOTION
Frames:	4
Frame Time:	0.0333333
-30.3772 11.2755 -7.87845e-008 174.131 -29.1719 -88.9973 0 -1.77636e-015 1.90735e-006 -52.5912 20.652 -89.1009 -7.25225 -1.74978 -4.05497e-007 -6.36634 -13.2366 -177.071 15.788 0 -1.90735e-006 6.57165 15.8981 -14.0939 16.0015 1.90735e-006 -9.53674e-007 -17.0744 -8.44244 0.428897 16.1689 -3.8147e-006 -2.38419e-007 -12.0746 -7.18838 11.7458 5.26083 4.2721 -1.5671 -3.31754 -12.6424 3.90316 6.12663 8.45827 -4.93954e-007 -88.9944 -0.0320282 -179.967 -4.6683 -3.61375 -5.09673 -71.7386 -8.39623 158.085 13.6591 1.90735e-006 -1.90735e-006 -147.376 -5.43517e-006 -5.11572e-006 9.07515 1.43051e-006 0 118.835 1.00291e-005 7.16629e-006 8.13856 0 3.01981e-013 12.44 -2.67698 30.3701 3.79737 6.30085 -4.19946e-007 87.9791 -1.08146 1.85087 0.838767 1.06581e-014 7.10543e-015 -1.66252e-006 9.14302e-006 -5.29144e-007 -5.38959 -5.98995 5.47016 -74.9062 7.42575 145.599 13.6591 -1.90735e-006 5.32907e-015 -114.617 1.71003e-006 7.75511e-006 9.07515 -1.90735e-006 -6.21725e-015 114.699 -2.83052e-007 -2.86724e-006 8.13856 3.8147e-006 4.76842e-007 -50.2814 5.49271 -9.18811 3.79738 6.30085 -1.94274e-006 93.7041 3.19081 -0.0388355 0.838762 3.8147e-006 -4.76837e-007 -179.96 7.18512e-005 1.75164e-005 12.1684 -0.0102463 -0.00240564 0.818792 10.6259 12.0006 -0.15749 5.09008 -6.54008 -92.7406 -0.022012 -167.965 -0.157494 5.09007 6.54 87.255 -0.00038859 12.0139 8.2971 8.50414 -4.57982e-007 -91.651 -0.0228271 -179.978 13.2807 -0.0100126 -0.00156212 32.1603 24.5874 -7.12574 12.4895 -6.66661 0.000221267 -11.8746 1.72838 -14.5311 -7.06845 -3.8003 0.73317 173.392 -51.147 88.2544 13.2557 9.53674e-007 -4.76837e-007 -65.2964 77.5348 60.2276 12.8897 3.73035e-014 -7.10543e-015 -59.4979 -8.98111e-006 -1.49437e-005 11.2623 1.90735e-006 -2.86102e-006 151.482 52.9575 -146.912 3.98016 -0.208656 -0.0949727 -19.9766 -0.5316 -20.0093 6.57561 2.41584e-013 1.90735e-006 179.96 1.76901e-005 -9.54899e-006 -6.47755 -3.72914 3.01258 -148.699 51.5199 -117.495 13.2557 -3.55271e-015 1.19209e-007 94.8838 -54.6463 105.95 12.8897 2.83122e-007 3.55271e-015 -111.154 -4.15967e-006 -9.1692e-006 11.2623 9.76995e-015 3.55271e-015 -164.423 -74.4695 143.795 3.98015 -0.208662 0.094978 14.2321 -11.482 62.2536 6.57563 -1.90735e-006 3.81469e-006 -2.14837e-007 1.03632e-005 -2.45843e-007 4.1934 -0.00320053 -0.000843048 14.2666 5.9208 3.50837 4.17605 0.298254 1.16717e-008 29.0062 -2.83733 0.343843 6.53259 -3.90693 -2.55362 133.025 18.1401 163.594 6.53259 -3.90695 2.55371 -46.9761 18.1112 -16.4184 1.75935 -4.1584 -4.45634 24.7931 -39.7306 142.462 1.75933 -4.1584 4.45616 -155.196 -39.7317 -37.5281 11.2964 -1.06183 2.32054 151.28 -2.12726 -89.9983 11.2964 -1.06183 -2.32036 -28.7076 -2.13818 89.9962 1.31489 1.30001 -8.40979e-007 -161.059 -1.33675 -179.191 12.6869 7.10543e-015 -9.53674e-007 -5.26516e-007 1.07676e-006 -8.51736e-007 
-30.4405 12.4763 -1.66697e-007 172.235 -32.3183 -89.1102 -4.44089e-016 -8.88178e-016 1.90735e-006 -51.9286 21.6888 -89.8602 -7.25225 -1.74978 -4.09655e-007 -6.84481 -13.2364 -177.092 15.788 -3.55271e-015 -1.90735e-006 7.42502 15.246 -12.0593 16.0015 1.90735e-006 -9.53674e-007 -20.0881 -8.55108 1.88552 16.1689 -3.8147e-006 -2.38419e-007 -12.496 -9.22533 10.1081 5.16833 4.34818 -1.66173 -3.87592 -13.5876 2.62083 6.12663 8.45827 -4.86379e-007 -88.9944 -0.0320282 -179.967 -4.63941 -3.67162 -4.97933 -70.9976 -11.1313 163.064 13.6591 1.90735e-006 -1.90735e-006 -143.219 -3.07801e-006 2.80769e-006 9.07515 1.43051e-006 0 107.817 8.48996e-006 6.18541e-006 8.13856 0 2.30926e-013 27.5532 -5.46357 31.3958 3.79737 6.30085 -4.20543e-007 88.4065 1.15951 3.06283 0.838767 1.33227e-014 0 -1.66252e-006 9.14302e-006 -5.29143e-007 -5.12234 -6.22227 5.56039 -74.8043 12.2566 154.617 13.6591 -1.90735e-006 5.77316e-015 -141.187 -8.77469e-006 -1.46426e-006 9.07515 -1.90735e-006 -1.77636e-015 141.798 2.12014e-006 -1.09137e-005 8.13856 3.8147e-006 4.76842e-007 -46.9739 11.4232 -3.30834 3.79738 6.30085 -1.68823e-006 94.1143 6.36602 -0.320465 0.838762 3.8147e-006 -4.76837e-007 -179.96 7.18552e-005 1.75131e-005 12.1684 -0.0102463 -0.00240564 1.7674 7.0724 11.6829 -0.15749 5.09008 -6.54008 -92.7406 -0.0220269 -167.965 -0.157494 5.09007 6.54 87.255 -0.000383153 12.0139 8.2971 8.50414 -4.40606e-007 -91.651 -0.0228271 -179.978 13.2807 -0.0100126 -0.00156212 30.5162 23.3582 -4.92942 12.4895 -6.66661 0.000221244 -11.7176 1.83009 -15.0501 -7.06983 -3.78278 0.806146 172.65 -50.9496 87.4695 13.2557 9.53674e-007 -4.76837e-007 -73.931 75.2026 65.3222 12.8897 3.90799e-014 -3.55271e-015 -53.9046 -9.60044e-006 -1.43023e-005 11.2622 1.90735e-006 -2.86102e-006 146.974 54.31 -145.506 3.98016 -0.208656 -0.0949727 -19.7059 0.423681 -20.734 6.57561 2.43361e-013 1.90735e-006 179.96 1.76901e-005 -9.54902e-006 -6.45834 -3.70744 3.07998 -148.187 51.3668 -118.312 13.2557 3.55271e-015 1.19209e-007 97.1788 -53.2391 105.573 12.8897 2.83122e-007 7.10543e-015 -112.904 5.53877e-006 -5.24029e-006 11.2623 7.9936e-015 -1.77636e-015 -160.049 -74.0195 147.524 3.98015 -0.208662 0.094978 14.2321 -11.4821 62.2536 6.57563 -1.90735e-006 3.81469e-006 -2.14837e-007 1.03632e-005 -2.45843e-007 4.1934 -0.00320053 -0.000843048 12.2841 6.39387 4.3683 4.17605 0.298254 1.14531e-008 31.2546 -4.7537 -0.164373 6.53259 -3.90693 -2.55362 133.025 18.1401 163.594 6.53259 -3.90695 2.55371 -46.9761 18.1112 -16.4184 1.75935 -4.1584 -4.45634 24.7931 -39.7306 142.462 1.75933 -4.1584 4.45616 -155.196 -39.7317 -37.5281 11.2964 -1.06183 2.32054 151.28 -2.12734 -89.9983 11.2964 -1.06183 -2.32036 -28.7076 -2.13818 89.9962 1.31489 1.30001 -8.48989e-007 -161.297 -1.28508 -179.21 12.6869 1.06581e-014 -9.53674e-007 -5.26542e-007 1.07676e-006 -8.51734e-007 
-30.5046 13.7321 -2.7246e-007 170.243 -35.6951 -89.3998 -1.77636e-015 0 1.90735e-006 -51.3336 22.7514 -90.6294 -7.25225 -1.74978 -4.13394e-007 -7.20547 -13.2362 -177.116 15.788 -3.55271e-015 -1.90735e-006 8.06638 14.7214 -10.1307 16.0015 1.90735e-006 -9.53674e-007 -22.3708 -8.63054 3.28561 16.1689 -3.8147e-006 -2.38419e-007 -12.6729 -10.9214 8.79543 5.0703 4.42716 -1.7521 -4.24711 -14.5544 1.37317 6.12663 8.45827 -4.81218e-007 -88.9944 -0.0320282 -179.967 -4.61284 -3.71327 -4.87326 -73.9518 -13.3714 166.726 13.6591 1.90735e-006 -1.90735e-006 -137.096 -4.63199e-006 3.69223e-006 9.07515 1.43051e-006 3.55271e-015 91.7857 1.3387e-005 6.33178e-006 8.13856 -3.55271e-015 1.74083e-013 41.226 -9.22316 32.0477 3.79737 6.30085 -4.34561e-007 88.5675 2.38399 3.26075 0.838767 1.59872e-014 0 -1.66252e-006 9.14302e-006 -5.29143e-007 -4.86475 -6.44119 5.63011 -70.9593 13.9776 163.642 13.6591 -1.90735e-006 -1.77636e-015 -166.154 -9.97236e-006 -7.51701e-006 9.07515 -1.90735e-006 3.55271e-015 171.842 -8.5706e-006 -3.24144e-006 8.13856 3.8147e-006 4.76842e-007 -40.862 16.8358 -1.2134 3.79738 6.30085 -1.24091e-006 93.1574 6.30417 -2.00491 0.838762 3.8147e-006 -4.76837e-007 -179.96 7.18557e-005 1.75114e-005 12.1684 -0.0102463 -0.00240564 2.63502 3.58532 11.388 -0.15749 5.09008 -6.54008 -92.7406 -0.0220269 -167.965 -0.157494 5.09007 6.54 87.255 -0.00038859 12.0139 8.2971 8.50414 -4.16657e-007 -91.651 -0.0228271 -179.978 13.2807 -0.0100126 -0.00156212 28.7101 21.8189 -2.74306 12.4895 -6.66661 0.000221225 -11.251 1.84451 -15.4644 -7.09324 -3.72563 0.864564 171.741 -50.7592 86.8721 13.2557 9.53674e-007 -4.76837e-007 -82.009 72.6021 69.5664 12.8897 4.26326e-014 -3.55271e-015 -46.6082 -1.13024e-005 -1.27574e-005 11.2622 1.90735e-006 -2.86102e-006 141.113 55.7648 -143.877 3.98016 -0.208656 -0.0949727 -19.4286 1.35695 -21.4491 6.57561 2.57571e-013 1.90735e-006 179.96 1.76901e-005 -9.54886e-006 -6.46541 -3.64968 3.13393 -148.122 51.2785 -118.971 13.2557 8.88178e-015 1.19209e-007 99.1808 -52.0918 104.807 12.8897 2.83122e-007 -3.55271e-015 -114.072 5.34195e-006 -5.07153e-006 11.2623 1.77636e-014 1.06581e-014 -155.868 -73.628 151.282 3.98015 -0.208662 0.094978 14.2321 -11.4819 62.2536 6.57563 -1.90735e-006 3.81469e-006 -2.14837e-007 1.03632e-005 -2.45843e-007 4.1934 -0.00320053 -0.000843048 10.1261 6.79148 5.17494 4.17605 0.298254 1.1733e-008 33.4334 -6.78038 -0.7157 6.53259 -3.90693 -2.55362 133.025 18.1402 163.594 6.53259 -3.90695 2.55371 -46.9761 18.1112 -16.4184 1.75935 -4.1584 -4.45634 24.7931 -39.7306 142.462 1.75933 -4.1584 4.45616 -155.196 -39.7317 -37.5281 11.2964 -1.06183 2.32054 151.28 -2.12726 -89.9983 11.2964 -1.06183 -2.32036 -28.7069 -2.13818 89.9962 1.31489 1.30001 -8.57283e-007 -161.53 -1.23436 -179.228 12.6869 -3.55271e-015 -9.53674e-007 -1.05444e-005 1.07676e-006 -8.51721e-007 
-30.5623 14.9633 -3.81368e-007 168.367 -39.1248 -89.8664 -8.88178e-016 -8.88178e-016 1.90735e-006 -50.8173 23.8374 -91.4067 -7.25225 -1.74978 -4.16403e-007 -7.44025 -13.236 -177.142 15.788 -3.55271e-015 -1.90735e-006 8.41759 14.3715 -8.3769 16.0015 1.90735e-006 -9.53674e-007 -23.8166 -8.67526 4.60723 16.1689 -3.8147e-006 -2.38419e-007 -12.7859 -12.1028 7.86321 4.96714 4.50852 -1.83746 -4.25398 -15.5191 0.285394 6.12663 8.45827 -4.79493e-007 -88.9944 -0.0320282 -179.967 -4.59502 -3.72679 -4.78368 -78.0775 -15.3386 168.974 13.6591 1.90735e-006 -1.90735e-006 -129.728 -1.06807e-005 7.64946e-007 9.07515 1.43051e-006 -3.55271e-015 74.1811 1.0379e-005 8.48104e-006 8.13856 0 1.49214e-013 52.9548 -12.9393 32.6781 3.79737 6.30085 -4.50453e-007 88.2429 2.06077 2.25053 0.838767 1.45439e-014 -1.77636e-015 -1.66252e-006 9.14303e-006 -5.29142e-007 -4.64724 -6.63121 5.67516 -82.0101 16.8761 175.024 13.6591 -1.90735e-006 7.10543e-015 179.96 -9.76276e-006 -4.96466e-006 9.07515 -1.90735e-006 -6.21725e-015 175.096 -8.72108e-006 -1.09931e-005 8.13856 3.8147e-006 4.76842e-007 -32.4071 19.6511 -1.98072 3.79738 6.30085 -8.47382e-007 89.2037 0.826864 -5.67952 0.838762 3.8147e-006 -4.76837e-007 -179.96 7.18559e-005 1.75114e-005 12.1684 -0.0102463 -0.00240564 3.4615 0.36182 11.0097 -0.15749 5.09008 -6.54008 -92.7406 -0.0220419 -167.965 -0.157494 5.09007 6.54 87.255 -0.000383153 12.0139 8.2971 8.50414 -3.89243e-007 -91.651 -0.0228271 -179.978 13.2807 -0.0100126 -0.00156212 26.8162 20.1191 -0.745444 12.4895 -6.66661 0.000221211 -10.7342 1.8063 -15.6574 -7.12321 -3.66106 0.893596 171.039 -50.6303 86.6184 13.2557 9.53674e-007 -4.76837e-007 -89.5012 69.6796 73.3516 12.8897 3.90799e-014 -7.10543e-015 -37.6382 -1.87611e-005 -3.37986e-006 11.2622 1.90735e-006 -2.86102e-006 134.033 57.1935 -142.053 3.98016 -0.208656 -0.0949727 -19.1367 2.29588 -22.1762 6.57561 2.4869e-013 1.90735e-006 179.96 1.769e-005 -9.54852e-006 -6.48762 -3.58677 3.16085 -148.376 51.2649 -119.297 13.2557 8.88178e-015 1.19209e-007 100.718 -51.2902 103.785 12.8897 2.83122e-007 0 -114.653 -3.41867e-006 -8.73504e-006 11.2623 6.21724e-015 0 -152.079 -73.4159 154.908 3.98015 -0.208662 0.094978 14.2321 -11.4819 62.2536 6.57563 -1.90735e-006 3.81469e-006 -2.14837e-007 1.03632e-005 -2.45843e-007 4.1934 -0.00320053 -0.000843048 7.9174 7.10606 5.89619 4.17605 0.298254 1.22694e-008 35.2304 -8.72192 -1.42065 6.53259 -3.90693 -2.55362 133.025 18.1402 163.594 6.53259 -3.90695 2.55371 -46.9761 18.1112 -16.4184 1.75935 -4.1584 -4.45634 24.7931 -39.7306 142.462 1.75933 -4.1584 4.45616 -155.196 -39.7317 -37.5281 11.2964 -1.06183 2.32054 151.28 -2.12735 -89.9983 11.2964 -1.06183 -2.32036 -28.7075 -2.13817 89.9962 1.31489 1.30001 -8.64657e-007 -161.766 -1.18306 -179.247 12.6869 -7.10543e-015 -9.53674e-007 -1.05444e-005 1.07676e-006 9.16617e-006 
